{"glyphs":{"0":{"ha":1042,"x_min":87,"x_max":955,"o":"m 87 -43 l 87 825 l 955 825 l 955 -43 l 87 -43 m 781 130 l 781 651 l 260 651 l 260 130 l 781 130 z "},"1":{"ha":347,"x_min":87,"x_max":260,"o":"m 260 825 l 260 -43 l 87 -43 l 87 825 l 260 825 z "},"2":{"ha":1042,"x_min":87,"x_max":955,"o":"m 87 825 l 955 825 l 955 304 l 260 304 l 260 130 l 955 130 l 955 -43 l 87 -43 l 87 477 l 781 477 l 781 651 l 87 651 l 87 825 z "},"3":{"ha":1042,"x_min":87,"x_max":955,"o":"m 955 -43 l 87 -43 l 87 130 l 781 130 l 781 304 l 87 304 l 87 477 l 781 477 l 781 651 l 87 651 l 87 825 l 955 825 l 955 -43 z "},"4":{"ha":1042,"x_min":87,"x_max":955,"o":"m 260 825 l 260 477 l 781 477 l 781 825 l 955 825 l 955 -43 l 781 -43 l 781 304 l 87 304 l 87 825 l 260 825 z "},"5":{"ha":1042,"x_min":87,"x_max":955,"o":"m 955 651 l 260 651 l 260 477 l 955 477 l 955 -43 l 87 -43 l 87 130 l 781 130 l 781 304 l 87 304 l 87 825 l 955 825 l 955 651 z "},"6":{"ha":1042,"x_min":87,"x_max":955,"o":"m 955 825 l 955 651 l 260 651 l 260 477 l 955 477 l 955 -43 l 87 -43 l 87 825 l 955 825 m 260 304 l 260 130 l 781 130 l 781 304 l 260 304 z "},"7":{"ha":1042,"x_min":87,"x_max":955,"o":"m 87 825 l 955 825 l 955 -43 l 781 -43 l 781 651 l 87 651 l 87 825 z "},"8":{"ha":1042,"x_min":87,"x_max":955,"o":"m 955 825 l 955 -43 l 87 -43 l 87 825 l 955 825 m 260 651 l 260 477 l 781 477 l 781 651 l 260 651 m 260 304 l 260 130 l 781 130 l 781 304 l 260 304 z "},"9":{"ha":1042,"x_min":87,"x_max":955,"o":"m 87 -43 l 87 130 l 781 130 l 781 304 l 87 304 l 87 825 l 955 825 l 955 -43 l 87 -43 m 260 651 l 260 477 l 781 477 l 781 651 l 260 651 z "}," ":{"ha":694,"x_min":0,"x_max":0,"o":""},"!":{"ha":347,"x_min":87,"x_max":260,"o":"m 260 825 l 260 304 l 87 304 l 87 825 l 260 825 m 260 130 l 260 -43 l 87 -43 l 87 130 l 260 130 z "},"\"":{"ha":694,"x_min":87,"x_max":608,"o":"m 87 477 l 87 825 l 260 825 l 260 477 l 87 477 m 434 477 l 434 825 l 608 825 l 608 477 l 434 477 z "},"#":{"ha":1042,"x_min":87,"x_max":955,"o":"m 260 304 l 260 477 l 87 477 l 87 651 l 260 651 l 260 825 l 434 825 l 434 651 l 608 651 l 608 825 l 781 825 l 781 651 l 955 651 l 955 477 l 781 477 l 781 304 l 955 304 l 955 130 l 781 130 l 781 -43 l 608 -43 l 608 130 l 434 130 l 434 -43 l 260 -43 l 260 130 l 87 130 l 87 304 l 260 304 m 434 477 l 434 304 l 608 304 l 608 477 l 434 477 z "},"$":{"ha":1042,"x_min":87,"x_max":955,"o":"m 608 825 l 955 825 l 955 651 l 608 651 l 608 477 l 955 477 l 955 -43 l 608 -43 l 608 -217 l 434 -217 l 434 -43 l 87 -43 l 87 130 l 434 130 l 434 304 l 87 304 l 87 825 l 434 825 l 434 998 l 608 998 l 608 825 m 434 651 l 260 651 l 260 477 l 434 477 l 434 651 m 608 304 l 608 130 l 781 130 l 781 304 l 608 304 z "},"%":{"ha":1082,"x_min":87,"x_max":996,"o":"m 87 -43 l 787 825 l 996 825 l 301 -43 l 87 -43 m 127 651 l 127 825 l 301 825 l 301 651 l 127 651 m 822 -43 l 822 130 l 996 130 l 996 -43 l 822 -43 z "},"&":{"ha":1042,"x_min":87,"x_max":955,"o":"m 434 477 l 434 825 l 608 825 l 608 477 l 955 477 l 955 304 l 608 304 l 608 -43 l 434 -43 l 434 304 l 87 304 l 87 477 l 434 477 z "},"'":{"ha":347,"x_min":87,"x_max":260,"o":"m 87 477 l 87 825 l 260 825 l 260 477 l 87 477 z "},"(":{"ha":1042,"x_min":87,"x_max":955,"o":"m 955 825 l 260 825 l 260 -43 l 955 -43 l 955 -217 l 87 -217 l 87 998 l 955 998 l 955 825 z "},")":{"ha":1042,"x_min":87,"x_max":955,"o":"m 87 998 l 955 998 l 955 -217 l 87 -217 l 87 -43 l 781 -43 l 781 825 l 87 825 l 87 998 z "},"*":{"ha":694,"x_min":87,"x_max":608,"o":"m 260 651 l 260 825 l 434 825 l 434 651 l 608 651 l 608 477 l 434 477 l 434 304 l 260 304 l 260 477 l 87 477 l 87 651 l 260 651 z "},"+":{"ha":1042,"x_min":87,"x_max":955,"o":"m 434 477 l 434 825 l 608 825 l 608 477 l 955 477 l 955 304 l 608 304 l 608 -43 l 434 -43 l 434 304 l 87 304 l 87 477 l 434 477 z "},",":{"ha":347,"x_min":87,"x_max":260,"o":"m 260 304 l 260 -43 l 87 -43 l 87 304 l 260 304 z "},"-":{"ha":1042,"x_min":87,"x_max":955,"o":"m 87 304 l 87 477 l 955 477 l 955 304 l 87 304 z "},".":{"ha":347,"x_min":87,"x_max":260,"o":"m 87 -43 l 87 130 l 260 130 l 260 -43 l 87 -43 z "},"/":{"ha":1082,"x_min":87,"x_max":996,"o":"m 87 -43 l 787 825 l 996 825 l 301 -43 l 87 -43 z "},":":{"ha":347,"x_min":87,"x_max":260,"o":"m 260 651 l 260 477 l 87 477 l 87 651 l 260 651 m 260 304 l 260 130 l 87 130 l 87 304 l 260 304 z "},";":{"ha":347,"x_min":87,"x_max":260,"o":"m 260 651 l 260 477 l 87 477 l 87 651 l 260 651 m 260 304 l 260 -43 l 87 -43 l 87 304 l 260 304 z "},"<":{"ha":1042,"x_min":87,"x_max":955,"o":"m 955 825 l 955 651 l 260 393 l 955 130 l 955 -43 l 87 304 l 87 477 l 955 825 z "},"=":{"ha":1042,"x_min":87,"x_max":955,"o":"m 87 477 l 87 651 l 955 651 l 955 477 l 87 477 m 87 130 l 87 304 l 955 304 l 955 130 l 87 130 z "},">":{"ha":1042,"x_min":87,"x_max":955,"o":"m 955 477 l 955 304 l 87 -43 l 87 130 l 781 393 l 87 651 l 87 825 l 955 477 z "},"?":{"ha":1042,"x_min":87,"x_max":955,"o":"m 608 130 l 608 -43 l 434 -43 l 434 130 l 608 130 m 87 825 l 955 825 l 955 304 l 434 304 l 434 477 l 781 477 l 781 651 l 260 651 l 260 477 l 87 477 l 87 825 z "},"@":{"ha":1042,"x_min":87,"x_max":955,"o":"m 434 304 l 434 477 l 781 477 l 781 651 l 260 651 l 260 130 l 955 130 l 955 -43 l 87 -43 l 87 825 l 955 825 l 955 304 l 434 304 z "},"A":{"ha":1042,"x_min":87,"x_max":955,"o":"m 521 -43 l 521 130 l 689 130 l 521 564 l 285 -43 l 87 -43 l 434 825 l 608 825 l 955 -43 l 521 -43 z "},"B":{"ha":1042,"x_min":87,"x_max":955,"o":"m 781 477 l 781 651 l 260 651 l 260 477 l 781 477 m 260 304 l 260 130 l 781 130 l 781 304 l 260 304 m 868 391 l 955 304 l 955 -43 l 87 -43 l 87 825 l 955 825 l 955 477 l 868 391 z "},"C":{"ha":1042,"x_min":87,"x_max":955,"o":"m 87 825 l 955 825 l 955 651 l 260 651 l 260 130 l 955 130 l 955 -43 l 87 -43 l 87 825 z "},"D":{"ha":1042,"x_min":87,"x_max":955,"o":"m 260 130 l 781 130 l 781 651 l 87 651 l 87 825 l 955 825 l 955 -43 l 87 -43 l 87 477 l 260 477 l 260 130 z "},"E":{"ha":1042,"x_min":87,"x_max":955,"o":"m 955 825 l 955 651 l 260 651 l 260 477 l 955 477 l 955 304 l 260 304 l 260 130 l 955 130 l 955 -43 l 87 -43 l 87 825 l 955 825 z "},"F":{"ha":1042,"x_min":87,"x_max":955,"o":"m 87 825 l 955 825 l 955 651 l 260 651 l 260 477 l 955 477 l 955 304 l 260 304 l 260 -43 l 87 -43 l 87 825 z "},"G":{"ha":1042,"x_min":87,"x_max":955,"o":"m 955 -43 l 87 -43 l 87 825 l 955 825 l 955 651 l 260 651 l 260 130 l 781 130 l 781 304 l 608 304 l 608 477 l 955 477 l 955 -43 z "},"H":{"ha":1042,"x_min":87,"x_max":955,"o":"m 260 825 l 260 477 l 781 477 l 781 825 l 955 825 l 955 -43 l 781 -43 l 781 304 l 260 304 l 260 -43 l 87 -43 l 87 825 l 260 825 z "},"I":{"ha":347,"x_min":87,"x_max":260,"o":"m 260 825 l 260 -43 l 87 -43 l 87 825 l 260 825 z "},"J":{"ha":1042,"x_min":87,"x_max":955,"o":"m 260 130 l 781 130 l 781 825 l 955 825 l 955 -43 l 87 -43 l 87 304 l 260 304 l 260 130 z "},"K":{"ha":1042,"x_min":87,"x_max":955,"o":"m 87 -43 l 87 825 l 260 825 l 260 477 l 703 825 l 955 825 l 434 380 l 955 -43 l 700 -43 l 260 304 l 260 -43 l 87 -43 z "},"L":{"ha":1042,"x_min":87,"x_max":955,"o":"m 955 -43 l 87 -43 l 87 825 l 260 825 l 260 130 l 955 130 l 955 -43 z "},"M":{"ha":1389,"x_min":87,"x_max":1302,"o":"m 87 -43 l 87 825 l 1302 825 l 1302 -43 l 1128 -43 l 1128 651 l 781 651 l 781 -43 l 608 -43 l 608 651 l 260 651 l 260 -43 l 87 -43 z "},"N":{"ha":1042,"x_min":87,"x_max":955,"o":"m 87 -43 l 87 825 l 260 825 l 781 209 l 781 825 l 955 825 l 955 -43 l 781 -43 l 260 553 l 260 -43 l 87 -43 z "},"O":{"ha":1042,"x_min":87,"x_max":955,"o":"m 260 651 l 260 130 l 781 130 l 781 651 l 260 651 m 955 825 l 955 -43 l 87 -43 l 87 825 l 955 825 z "},"P":{"ha":1042,"x_min":87,"x_max":955,"o":"m 781 477 l 781 651 l 260 651 l 260 477 l 781 477 m 260 -43 l 87 -43 l 87 825 l 955 825 l 955 304 l 260 304 l 260 -43 z "},"Q":{"ha":1042,"x_min":87,"x_max":955,"o":"m 260 651 l 260 130 l 781 130 l 781 651 l 260 651 m 608 -43 l 87 -43 l 87 825 l 955 825 l 955 -43 l 781 -43 l 781 -217 l 608 -217 l 608 -43 z "},"R":{"ha":1042,"x_min":87,"x_max":955,"o":"m 260 651 l 260 477 l 781 477 l 781 651 l 260 651 m 434 304 l 260 304 l 260 -43 l 87 -43 l 87 825 l 955 825 l 955 304 l 648 304 l 955 -43 l 741 -43 l 434 304 z "},"S":{"ha":1042,"x_min":87,"x_max":955,"o":"m 955 651 l 260 651 l 260 477 l 955 477 l 955 -43 l 87 -43 l 87 130 l 781 130 l 781 304 l 87 304 l 87 825 l 955 825 l 955 651 z "},"T":{"ha":1042,"x_min":87,"x_max":955,"o":"m 87 825 l 955 825 l 955 651 l 608 651 l 608 -43 l 434 -43 l 434 651 l 87 651 l 87 825 z "},"U":{"ha":1042,"x_min":87,"x_max":955,"o":"m 260 825 l 260 130 l 781 130 l 781 825 l 955 825 l 955 -43 l 87 -43 l 87 825 l 260 825 z "},"V":{"ha":1042,"x_min":87,"x_max":955,"o":"m 955 825 l 608 -43 l 434 -43 l 87 825 l 282 825 l 521 217 l 760 825 l 955 825 z "},"W":{"ha":1389,"x_min":87,"x_max":1302,"o":"m 260 825 l 260 130 l 608 130 l 608 825 l 781 825 l 781 130 l 1128 130 l 1128 825 l 1302 825 l 1302 -43 l 87 -43 l 87 825 l 260 825 z "},"X":{"ha":1042,"x_min":87,"x_max":955,"o":"m 412 391 l 87 825 l 304 825 l 521 534 l 738 825 l 955 825 l 629 391 l 955 -43 l 738 -43 l 521 247 l 304 -43 l 87 -43 l 412 391 z "},"Y":{"ha":1042,"x_min":87,"x_max":955,"o":"m 434 -43 l 434 304 l 87 825 l 304 825 l 521 521 l 741 825 l 955 825 l 608 304 l 608 -43 l 434 -43 z "},"Z":{"ha":1042,"x_min":87,"x_max":955,"o":"m 955 -43 l 87 -43 l 608 651 l 87 651 l 87 825 l 955 825 l 434 130 l 955 130 l 955 -43 z "},"[":{"ha":694,"x_min":87,"x_max":608,"o":"m 608 825 l 260 825 l 260 -43 l 608 -43 l 608 -217 l 87 -217 l 87 998 l 608 998 l 608 825 z "},"\\":{"ha":1082,"x_min":87,"x_max":996,"o":"m 781 -43 l 87 825 l 296 825 l 996 -43 l 781 -43 z "},"]":{"ha":694,"x_min":87,"x_max":608,"o":"m 87 998 l 608 998 l 608 -217 l 87 -217 l 87 -43 l 434 -43 l 434 825 l 87 825 l 87 998 z "},"^":{"ha":694,"x_min":87,"x_max":608,"o":"m 87 825 l 350 1172 l 608 825 l 434 825 l 353 933 l 260 825 l 87 825 z "},"_":{"ha":1042,"x_min":87,"x_max":955,"o":"m 87 -217 l 87 -43 l 955 -43 l 955 -217 l 87 -217 z "},"`":{"ha":521,"x_min":87,"x_max":434,"o":"m 87 1172 l 260 1172 l 434 825 l 260 825 l 87 1172 z "},"a":{"ha":1042,"x_min":87,"x_max":955,"o":"m 521 -43 l 521 130 l 689 130 l 521 564 l 285 -43 l 87 -43 l 434 825 l 608 825 l 955 -43 l 521 -43 z "},"b":{"ha":1042,"x_min":87,"x_max":955,"o":"m 781 477 l 781 651 l 260 651 l 260 477 l 781 477 m 260 304 l 260 130 l 781 130 l 781 304 l 260 304 m 868 391 l 955 304 l 955 -43 l 87 -43 l 87 825 l 955 825 l 955 477 l 868 391 z "},"c":{"ha":1042,"x_min":87,"x_max":955,"o":"m 87 825 l 955 825 l 955 651 l 260 651 l 260 130 l 955 130 l 955 -43 l 87 -43 l 87 825 z "},"d":{"ha":1042,"x_min":87,"x_max":955,"o":"m 260 130 l 781 130 l 781 651 l 87 651 l 87 825 l 955 825 l 955 -43 l 87 -43 l 87 477 l 260 477 l 260 130 z "},"e":{"ha":1042,"x_min":87,"x_max":955,"o":"m 955 825 l 955 651 l 87 651 l 87 825 l 955 825 m 87 477 l 955 477 l 955 304 l 260 304 l 260 130 l 955 130 l 955 -43 l 87 -43 l 87 477 z "},"f":{"ha":1042,"x_min":87,"x_max":955,"o":"m 87 825 l 955 825 l 955 651 l 260 651 l 260 477 l 955 477 l 955 304 l 260 304 l 260 -43 l 87 -43 l 87 825 z "},"g":{"ha":1042,"x_min":87,"x_max":955,"o":"m 955 -43 l 87 -43 l 87 825 l 955 825 l 955 651 l 260 651 l 260 130 l 781 130 l 781 304 l 608 304 l 608 477 l 955 477 l 955 -43 z "},"h":{"ha":1042,"x_min":87,"x_max":955,"o":"m 260 825 l 260 477 l 781 477 l 781 825 l 955 825 l 955 -43 l 781 -43 l 781 304 l 260 304 l 260 -43 l 87 -43 l 87 825 l 260 825 z "},"i":{"ha":347,"x_min":87,"x_max":260,"o":"m 260 825 l 260 -43 l 87 -43 l 87 825 l 260 825 z "},"j":{"ha":1042,"x_min":87,"x_max":955,"o":"m 260 130 l 781 130 l 781 825 l 955 825 l 955 -43 l 87 -43 l 87 304 l 260 304 l 260 130 z "},"k":{"ha":1042,"x_min":87,"x_max":955,"o":"m 87 -43 l 87 825 l 260 825 l 260 477 l 703 825 l 955 825 l 434 380 l 955 -43 l 700 -43 l 260 304 l 260 -43 l 87 -43 z "},"l":{"ha":1042,"x_min":87,"x_max":955,"o":"m 955 -43 l 87 -43 l 87 825 l 260 825 l 260 130 l 955 130 l 955 -43 z "},"m":{"ha":1389,"x_min":87,"x_max":1302,"o":"m 87 -43 l 87 825 l 1302 825 l 1302 -43 l 1128 -43 l 1128 651 l 781 651 l 781 -43 l 608 -43 l 608 651 l 260 651 l 260 -43 l 87 -43 z "},"n":{"ha":1042,"x_min":87,"x_max":955,"o":"m 87 -43 l 87 825 l 260 825 l 781 209 l 781 825 l 955 825 l 955 -43 l 781 -43 l 260 553 l 260 -43 l 87 -43 z "},"o":{"ha":1042,"x_min":87,"x_max":955,"o":"m 260 651 l 260 130 l 781 130 l 781 651 l 260 651 m 955 825 l 955 -43 l 87 -43 l 87 825 l 955 825 z "},"p":{"ha":1042,"x_min":87,"x_max":955,"o":"m 781 477 l 781 651 l 260 651 l 260 477 l 781 477 m 260 -43 l 87 -43 l 87 825 l 955 825 l 955 304 l 260 304 l 260 -43 z "},"q":{"ha":1042,"x_min":87,"x_max":955,"o":"m 260 651 l 260 130 l 781 130 l 781 651 l 260 651 m 434 -43 l 87 -43 l 87 825 l 955 825 l 955 -43 l 608 -43 l 608 -217 l 434 -217 l 434 -43 z "},"r":{"ha":1042,"x_min":87,"x_max":955,"o":"m 260 651 l 260 477 l 781 477 l 781 651 l 260 651 m 434 304 l 260 304 l 260 -43 l 87 -43 l 87 825 l 955 825 l 955 304 l 648 304 l 955 -43 l 741 -43 l 434 304 z "},"s":{"ha":1042,"x_min":87,"x_max":955,"o":"m 955 651 l 260 651 l 260 477 l 955 477 l 955 -43 l 87 -43 l 87 130 l 781 130 l 781 304 l 87 304 l 87 825 l 955 825 l 955 651 z "},"t":{"ha":1042,"x_min":87,"x_max":955,"o":"m 87 825 l 955 825 l 955 651 l 608 651 l 608 -43 l 434 -43 l 434 651 l 87 651 l 87 825 z "},"u":{"ha":1042,"x_min":87,"x_max":955,"o":"m 260 825 l 260 130 l 781 130 l 781 825 l 955 825 l 955 -43 l 87 -43 l 87 825 l 260 825 z "},"v":{"ha":1042,"x_min":87,"x_max":955,"o":"m 955 825 l 608 -43 l 434 -43 l 87 825 l 282 825 l 521 217 l 760 825 l 955 825 z "},"w":{"ha":1389,"x_min":87,"x_max":1302,"o":"m 260 825 l 260 130 l 608 130 l 608 825 l 781 825 l 781 130 l 1128 130 l 1128 825 l 1302 825 l 1302 -43 l 87 -43 l 87 825 l 260 825 z "},"x":{"ha":1042,"x_min":87,"x_max":955,"o":"m 412 391 l 87 825 l 304 825 l 521 534 l 738 825 l 955 825 l 629 391 l 955 -43 l 738 -43 l 521 247 l 304 -43 l 87 -43 l 412 391 z "},"y":{"ha":1042,"x_min":87,"x_max":955,"o":"m 434 -43 l 434 304 l 87 825 l 304 825 l 521 521 l 741 825 l 955 825 l 608 304 l 608 -43 l 434 -43 z "},"z":{"ha":1042,"x_min":87,"x_max":955,"o":"m 955 -43 l 87 -43 l 608 651 l 87 651 l 87 825 l 955 825 l 434 130 l 955 130 l 955 -43 z "},"{":{"ha":1042,"x_min":87,"x_max":955,"o":"m 87 -43 l 87 825 l 955 825 l 955 -43 l 87 -43 z "},"|":{"ha":347,"x_min":87,"x_max":260,"o":"m 87 -217 l 87 998 l 260 998 l 260 -217 l 87 -217 z "},"}":{"ha":1042,"x_min":87,"x_max":955,"o":"m 87 -43 l 87 825 l 955 825 l 955 -43 l 87 -43 z "},"~":{"ha":694,"x_min":87,"x_max":608,"o":"m 87 437 l 260 575 l 434 445 l 608 578 l 608 369 l 434 231 l 260 361 l 87 231 l 87 437 z "},"‘":{"ha":347,"x_min":87,"x_max":260,"o":"m 87 477 l 87 825 l 260 825 l 260 477 l 87 477 z "},"’":{"ha":347,"x_min":87,"x_max":260,"o":"m 87 477 l 87 825 l 260 825 l 260 477 l 87 477 z "},"“":{"ha":694,"x_min":87,"x_max":608,"o":"m 87 477 l 87 825 l 260 825 l 260 477 l 87 477 m 434 477 l 434 825 l 608 825 l 608 477 l 434 477 z "},"”":{"ha":694,"x_min":87,"x_max":608,"o":"m 87 477 l 87 825 l 260 825 l 260 477 l 87 477 m 434 477 l 434 825 l 608 825 l 608 477 l 434 477 z "},"£":{"ha":1215,"x_min":87,"x_max":1128,"o":"m 260 477 l 260 825 l 1128 825 l 1128 477 l 955 477 l 955 651 l 434 651 l 434 477 l 781 477 l 781 304 l 434 304 l 434 130 l 1128 130 l 1128 -43 l 260 -43 l 260 304 l 87 304 l 87 477 l 260 477 z "},"¥":{"ha":1042,"x_min":87,"x_max":955,"o":"m 608 130 l 608 -43 l 434 -43 l 434 130 l 190 130 l 190 304 l 434 304 l 87 825 l 304 825 l 515 496 l 741 825 l 955 825 l 608 304 l 884 304 l 884 130 l 608 130 z "},"€":{"ha":1215,"x_min":87,"x_max":1128,"o":"m 1128 -43 l 260 -43 l 260 304 l 87 304 l 87 477 l 260 477 l 260 825 l 1128 825 l 1128 651 l 434 651 l 434 477 l 1128 477 l 1128 304 l 434 304 l 434 130 l 1128 130 l 1128 -43 z "},"¢":{"ha":1042,"x_min":87,"x_max":955,"o":"m 434 -43 l 87 -43 l 87 825 l 434 825 l 434 998 l 608 998 l 608 825 l 955 825 l 955 651 l 608 651 l 608 130 l 955 130 l 955 -43 l 608 -43 l 608 -217 l 434 -217 l 434 -43 m 434 651 l 260 651 l 260 130 l 434 130 l 434 651 z "},"÷":{"ha":1042,"x_min":87,"x_max":955,"o":"m 87 304 l 87 477 l 955 477 l 955 304 l 87 304 m 608 825 l 608 651 l 434 651 l 434 825 l 608 825 m 608 130 l 608 -43 l 434 -43 l 434 130 l 608 130 z "},"©":{"ha":515,"x_min":87,"x_max":429,"o":"m 87 825 l 429 825 l 429 757 l 155 757 l 155 551 l 429 551 l 429 483 l 87 483 l 87 825 z "},"®":{"ha":518,"x_min":87,"x_max":431,"o":"m 155 757 l 155 686 l 363 686 l 363 757 l 155 757 m 225 618 l 155 618 l 155 480 l 87 480 l 87 825 l 431 825 l 431 618 l 309 618 l 431 480 l 347 480 l 225 618 z "},"™":{"ha":868,"x_min":87,"x_max":781,"o":"m 437 754 l 296 754 l 296 477 l 225 477 l 225 754 l 87 754 l 87 825 l 781 825 l 781 480 l 713 480 l 713 757 l 643 757 l 643 480 l 575 480 l 575 757 l 505 757 l 505 480 l 437 480 l 437 754 z "}}}
